<?xml version="1.0" encoding="UTF-8" standalone="no"?>
<!-- Created with Inkscape (http://www.inkscape.org/) -->

<svg
   width="1200"
   height="1388"
   viewBox="0 0 317.5 367.24166"
   version="1.1"
   id="svg1"
   xml:space="preserve"
   inkscape:version="1.3.1 (91b66b0783, 2023-11-16)"
   sodipodi:docname="Logo_UFMT.svg"
   xmlns:inkscape="http://www.inkscape.org/namespaces/inkscape"
   xmlns:sodipodi="http://sodipodi.sourceforge.net/DTD/sodipodi-0.dtd"
   xmlns="http://www.w3.org/2000/svg"
   xmlns:svg="http://www.w3.org/2000/svg"
   xmlns:rdf="http://www.w3.org/1999/02/22-rdf-syntax-ns#"
   xmlns:cc="http://creativecommons.org/ns#"
   xmlns:dc="http://purl.org/dc/elements/1.1/"><title
     id="title1">UNIVERSIDADE FEDERAL DE MATO GROSSO</title><sodipodi:namedview
     id="namedview1"
     pagecolor="#ffffff"
     bordercolor="#000000"
     borderopacity="0.25"
     inkscape:showpageshadow="2"
     inkscape:pageopacity="0.0"
     inkscape:pagecheckerboard="0"
     inkscape:deskcolor="#d1d1d1"
     inkscape:document-units="px"
     inkscape:zoom="0.35355339"
     inkscape:cx="527.50166"
     inkscape:cy="683.06515"
     inkscape:window-width="1600"
     inkscape:window-height="829"
     inkscape:window-x="-8"
     inkscape:window-y="-8"
     inkscape:window-maximized="1"
     inkscape:current-layer="layer1" /><defs
     id="defs1" /><g
     inkscape:label="Camada 1"
     inkscape:groupmode="layer"
     id="layer1"
     transform="translate(53.018749,54.646347)"><circle
       style="fill:#ffffff;fill-opacity:1;stroke-width:0.287756"
       id="path1"
       cx="105.73125"
       cy="104.021"
       r="79.374893" /><path
       id="circle5"
       style="fill:#0a75aa;fill-opacity:1;stroke-width:2.61033"
       d="M 105.731,24.646 A 79.375021,79.375021 0 0 0 26.356252,104.02075 79.375021,79.375021 0 0 0 105.731,183.396 79.375021,79.375021 0 0 0 185.10625,104.02075 79.375021,79.375021 0 0 0 105.731,24.646 Z m 0,12.012795 A 67.361945,67.361945 0 0 1 173.09296,104.02075 67.361945,67.361945 0 0 1 105.731,171.38271 67.361945,67.361945 0 0 1 38.369047,104.02075 67.361945,67.361945 0 0 1 105.731,36.658795 Z m 0,10.953624 A 56.408478,56.408478 0 0 0 70.778381,59.920166 H 140.68363 A 56.408478,56.408478 0 0 0 105.731,47.612419 Z m -44.100582,21.45571 a 56.408478,56.408478 0 0 0 -12.307747,34.952621 56.408478,56.408478 0 0 0 12.307747,34.95361 z m 88.201172,0 V 139.16049 A 56.408478,56.408478 0 0 0 162.13934,104.02075 56.408478,56.408478 0 0 0 149.83159,69.068129 Z M 72.221138,70.510885 V 95.640947 A 34.613303,34.613303 0 0 1 97.351199,70.510885 Z m 42.158522,0 a 34.613303,34.613303 0 0 1 24.8617,24.862684 V 70.510885 Z M 105.731,81.355687 A 22.665135,22.665135 0 0 0 83.06594,104.02075 22.665135,22.665135 0 0 0 105.731,126.68582 22.665135,22.665135 0 0 0 128.39607,104.02075 22.665135,22.665135 0 0 0 105.731,81.355687 Z m 0,10.059411 A 12.605826,12.605826 0 0 1 118.33715,104.02075 12.605826,12.605826 0 0 1 105.731,116.62689 12.605826,12.605826 0 0 1 93.12535,104.02075 12.605826,12.605826 0 0 1 105.731,91.415098 Z M 72.221138,112.40056 v 25.13055 H 97.353169 A 34.613303,34.613303 0 0 1 72.221138,112.40056 Z m 67.020222,0.26738 a 34.613303,34.613303 0 0 1 -24.86317,24.86317 h 24.86317 z m -68.463963,35.4534 a 56.408478,56.408478 0 0 0 34.953603,12.30824 56.408478,56.408478 0 0 0 35.13975,-12.30824 z" /><path
       style="font-size:52.2373px;font-family:'Neue Helvetica BQ';-inkscape-font-specification:'Neue Helvetica BQ';fill:#0a75aa;stroke-width:4.14794"
       d="M 67.877151,197.183 H 60.21176 v 21.10472 c -0.04978,2.68786 -0.04978,5.77393 -2.638089,7.46628 -0.746629,0.49776 -2.140337,1.04529 -4.280674,1.04529 -5.425505,0 -6.769437,-2.8372 -7.217414,-5.37573 -0.248876,-1.29416 -0.199102,-2.68787 -0.199102,-3.08607 V 197.183 H 38.21109 v 20.60697 c 0.04978,3.83269 0.248877,5.37572 0.895955,7.31696 0.84618,2.63809 2.389213,4.08157 3.185618,4.8282 1.99101,1.74213 5.027302,3.28517 10.801233,3.28517 6.620111,0 9.855504,-2.04079 11.846515,-4.47978 1.244381,-1.49326 2.63809,-3.78292 2.886965,-8.21292 0.04978,-0.89595 0.04978,-1.74213 0.04978,-2.63809 z m 32.553029,0 H 75.642093 v 35.14134 h 7.715167 v -14.43483 h 14.833031 v -6.07258 H 83.35726 V 203.604 h 17.07292 z m 40.96506,0 H 130.594 l -7.96403,24.98719 -8.11337,-24.98719 h -10.90079 v 35.14134 h 7.26719 l -0.29865,-27.02797 8.95954,27.02797 h 6.07259 l 8.86,-27.02797 -0.34843,27.02797 h 7.26719 z m 31.85617,0 h -28.91943 v 6.57034 h 10.60213 v 28.571 h 7.71517 v -28.571 h 10.60213 z"
       id="text1"
       aria-label="UFMT" /></g><metadata
     id="metadata1"><rdf:RDF><cc:Work
         rdf:about=""><dc:title>UNIVERSIDADE FEDERAL DE MATO GROSSO</dc:title><dc:rights><cc:Agent><dc:title>UNIVERSIDADE FEDERAL DE MATO GROSSO</dc:title></cc:Agent></dc:rights><dc:contributor><cc:Agent><dc:title>Diogo Correia Rodrigues</dc:title></cc:Agent></dc:contributor><cc:license
           rdf:resource="http://creativecommons.org/licenses/by-sa/4.0/" /></cc:Work><cc:License
         rdf:about="http://creativecommons.org/licenses/by-sa/4.0/"><cc:permits
           rdf:resource="http://creativecommons.org/ns#Reproduction" /><cc:permits
           rdf:resource="http://creativecommons.org/ns#Distribution" /><cc:requires
           rdf:resource="http://creativecommons.org/ns#Notice" /><cc:requires
           rdf:resource="http://creativecommons.org/ns#Attribution" /><cc:permits
           rdf:resource="http://creativecommons.org/ns#DerivativeWorks" /><cc:requires
           rdf:resource="http://creativecommons.org/ns#ShareAlike" /></cc:License></rdf:RDF></metadata></svg>
